HIERARCHY
ROOT hip
{
	OFFSET	0.00  0.00  0.00 
	CHANNELS 6 Xposition Yposition Zposition Xrotation Zrotation Yrotation
	JOINT abdomen
	{
		OFFSET	0.000000 0.000000 0.000000
		CHANNELS 3 Xrotation Zrotation Yrotation
		JOINT chest
		{
			OFFSET	0.000000 5.018152 -1.882228
			CHANNELS 3 Xrotation Zrotation Yrotation
			JOINT neckDummy
			{
				OFFSET	0.000000 8.316447 0.784897
				CHANNELS 3 Xrotation Yrotation Zrotation
				JOINT neck
				{
					OFFSET	0.000000 2.280413 -0.392801
					CHANNELS 3 Xrotation Zrotation Yrotation
					JOINT head
					{
						OFFSET	0.000000 3.496879 0.529469
						CHANNELS 3 Xrotation Zrotation Yrotation
						JOINT figureHair
						{
							OFFSET	0.000000 4.699570 0.720622
							CHANNELS 3 Zrotation Yrotation Xrotation
							End Site
							{
								OFFSET 0.000000 -6.419331 0.000000
							}
						}
					}
				}
			}
			JOINT lCollar
			{
				OFFSET	0.599237 8.316447 0.784897
				CHANNELS 3 Yrotation Zrotation Xrotation
				JOINT lShldr
				{
					OFFSET	6.421198 0.010146 -0.332128
					CHANNELS 3 Zrotation Yrotation Xrotation
					JOINT lForeArm
					{
						OFFSET	10.552783 0.025574 0.125508
						CHANNELS 3 Yrotation Zrotation Xrotation
						JOINT lHand
						{
							OFFSET	11.035963 0.319619 0.041520
							CHANNELS 3 Zrotation Yrotation Xrotation
							JOINT bow_and_arrow
							{
								OFFSET	-36.892184 -59.248628 1.022391
								CHANNELS 3 Zrotation Yrotation Xrotation
								End Site
								{
									OFFSET 8.283003 27.081484 0.000000
								}
							}
						}
					}
				}
			}
			JOINT rCollar
			{
				OFFSET	-0.599237 8.316447 0.784897
				CHANNELS 3 Yrotation Zrotation Xrotation
				JOINT rShldr
				{
					OFFSET	-6.421198 0.010146 -0.332128
					CHANNELS 3 Zrotation Yrotation Xrotation
					JOINT rForeArm
					{
						OFFSET	-10.552783 0.025574 0.125508
						CHANNELS 3 Yrotation Zrotation Xrotation
						JOINT rHand
						{
							OFFSET	-11.035963 0.319619 0.041520
							CHANNELS 3 Zrotation Yrotation Xrotation
							End Site
							{
								OFFSET -10.353753 0.000000 0.000000
							}
						}
					}
				}
			}
		}
	}
	JOINT lThigh
	{
		OFFSET	4.500466 -6.400484 -1.832696
		CHANNELS 3 Xrotation Zrotation Yrotation
		JOINT lShin
		{
			OFFSET	-1.359117 -18.918689 1.179887
			CHANNELS 3 Xrotation Zrotation Yrotation
			JOINT lFoot
			{
				OFFSET	-0.652380 -17.215186 -0.312137
				CHANNELS 3 Xrotation Yrotation Zrotation
				End Site
				{
					OFFSET 0.000000 0.000000 10.353752
				}
			}
		}
	}
	JOINT rThigh
	{
		OFFSET	-4.500466 -6.400484 -1.832696
		CHANNELS 3 Xrotation Zrotation Yrotation
		JOINT rShin
		{
			OFFSET	1.359117 -18.918689 1.179887
			CHANNELS 3 Xrotation Zrotation Yrotation
			JOINT rFoot
			{
				OFFSET	0.652380 -17.215186 -0.312137
				CHANNELS 3 Xrotation Yrotation Zrotation
				End Site
				{
					OFFSET 0.000000 0.000000 10.353752
				}
			}
		}
	}
}
MOTION
Frames:     10
Frame Time: 0.041667
0.089632 35.858776 -2.011518 0.000000 0.000000 0.000000 19.238001 -0.321007 -0.380466 25.522699 -0.830931 -0.534087 0.000000 0.000000 0.000000 -22.000000 0.000000 0.000000 -12.000000 0.000000 0.000000 0.000000 0.000000 0.000000 0.234375 -10.576200 -1.326330 -36.117199 -41.542999 5.830350 -48.899799 -16.132200 11.840900 6.000000 42.000000 5.677300 13.476800 185.498001 -84.741096 -2.021920 5.690310 -0.063351 95.100700 68.021202 75.991600 48.515598 26.303699 13.147700 -5.969490 0.173112 0.175734 -42.441025 7.371196 -0.878424 67.240311 -3.591824 -6.141899 -25.011827 0.966623 -0.537558 -32.900688 -12.858472 4.137587 69.503166 3.174457 5.942786 -37.265831 -1.300711 6.816876 
0.154717 36.440464 -1.907426 0.088226 -0.176453 -8.557954 16.679020 -0.321295 -1.705457 24.110376 -0.832975 1.581875 0.000000 0.000000 0.000000 -19.970629 0.002222 4.343553 -5.321808 -0.422992 -0.402623 0.000000 0.000000 0.000000 0.234375 -9.890608 -1.326330 -33.033169 -38.393833 5.330702 -46.369278 -14.149839 6.284185 8.482615 38.572098 -2.083085 13.476800 185.498001 -84.741096 -3.736278 3.374892 -0.064160 85.698174 72.387619 69.812859 59.934437 27.783842 -2.153382 -3.230634 0.173112 0.175734 -39.502773 8.387232 -1.107569 64.807617 -3.348621 -5.877434 -25.414324 6.033059 -1.734537 -36.674988 -15.847384 -5.538780 80.240944 2.548833 6.683261 -32.325314 13.832671 0.843122 
0.233435 37.143997 -1.781529 0.194934 -0.389868 -18.908577 13.584003 -0.321640 -3.307973 22.402220 -0.835413 4.141100 0.000000 0.000000 0.000000 -17.516203 0.004259 9.590976 2.436428 -0.979965 -1.100285 0.000000 0.000000 0.000000 0.234376 -9.055480 -1.326329 -29.273115 -34.614735 4.722074 -43.199726 -11.735096 -0.484529 11.377969 34.396523 -11.396688 13.476800 185.498001 -84.741096 -5.824548 0.554499 -0.065119 74.063751 77.785973 62.286747 73.221436 28.941792 -20.250267 -0.373221 0.173112 0.175733 -35.764133 8.894695 -1.389746 61.702091 -3.071602 -5.555581 -25.674784 11.336861 -2.721163 -31.263496 -16.553993 -17.562075 79.000893 1.877011 6.136101 -19.595114 24.855240 -13.534136 
0.318319 37.902637 -1.645772 0.310000 -0.620000 -30.070000 10.246600 -0.321964 -5.035760 20.560400 -0.837709 6.901030 0.000000 0.000000 0.000000 -14.870000 0.000000 15.190000 7.638710 -2.030770 -3.943080 0.000000 0.000000 0.000000 0.234375 -8.096170 -1.326330 -24.920900 -30.834600 4.022940 -38.700901 -8.961250 -8.259800 13.435500 29.600000 -20.721701 13.476800 185.498001 -84.741096 -8.223240 -2.684800 -0.065958 58.915401 84.770897 53.644402 82.352402 23.917500 -35.702999 -1.807950 0.173112 0.175734 -30.518471 9.352830 -1.583222 57.080601 -3.139264 -5.069433 -26.212440 3.227994 -3.584278 -22.123734 -11.507798 -21.214451 68.426613 2.138538 4.348465 -12.030354 17.540871 -19.829090 
0.407730 38.701748 -1.502774 0.431204 -0.862407 -41.826748 6.731322 -0.322203 -6.855136 18.620625 -0.839399 9.808683 0.000000 0.000000 0.000000 -12.083128 -0.010780 21.029705 7.718318 -3.746614 -9.981150 0.000000 0.000000 0.000000 0.234374 -7.028407 -1.326331 -20.046379 -27.140446 3.244761 -32.908230 -5.873762 -16.914177 14.065849 24.261158 -29.027414 13.476800 185.498001 -84.741096 -10.892955 -6.289582 -0.066495 39.416977 93.855820 44.029381 83.334160 8.925465 -44.864418 -10.489633 0.173113 0.175736 -23.812597 9.212302 -1.614439 50.368114 -3.734159 -4.361043 -27.182604 -23.716053 -4.325752 -15.784106 -4.205060 -10.477849 57.312351 3.838780 2.100144 -19.754580 -8.821259 -12.230783 
0.499464 39.521614 -1.356063 0.555556 -1.111110 -53.888901 3.125000 -0.322266 -8.720770 16.630899 -0.839844 12.792800 0.000000 0.000000 0.000000 -9.222220 0.000000 27.222200 4.668380 -5.000000 -15.111100 0.000000 0.000000 0.000000 0.234375 -6.131740 -1.326330 -16.052099 -22.352400 2.591270 -30.622101 -3.281000 -24.181801 15.333300 19.777800 -35.100498 13.476800 185.498001 -84.741096 -13.134800 -9.316410 -0.066779 22.214199 102.781998 35.957001 80.597504 -6.645490 -49.153198 -20.653099 0.173112 0.175734 -17.875132 8.278651 -1.398564 44.162689 -4.074569 -3.718944 -26.994724 -34.427975 -4.246810 -11.509687 -1.835540 -1.838591 47.747139 4.706139 0.484665 -25.607906 -18.920527 -8.906865 
0.589862 40.329540 -1.211489 0.678098 -1.356192 -65.775429 -0.428454 -0.322096 -10.557956 14.670664 -0.838637 15.734671 0.000000 0.000000 0.000000 -6.399581 0.055595 33.738598 1.165676 -4.725661 -15.294413 0.000000 0.000000 0.000000 0.234382 -5.657527 -1.326322 -14.189191 -15.579239 2.245656 -35.899307 -1.909817 -28.025318 19.105728 17.406754 -38.081551 13.476802 185.498032 -84.741112 -14.320383 -10.917074 -0.066894 13.690237 109.074448 31.688416 79.544144 -13.064844 -50.893856 -25.977753 0.173109 0.175725 -12.518763 6.747867 -0.992592 37.799679 -3.900792 -3.090094 -24.592394 -22.255161 -2.789701 -8.528294 -2.599875 -1.587729 38.620983 4.108084 -0.452558 -21.957399 -7.816474 -6.430044 
0.670021 41.045948 -1.083292 0.786757 -1.573511 -76.315453 -3.579135 -0.321790 -12.186172 12.932817 -0.836475 18.344084 0.000000 0.000000 0.000000 -3.894673 0.131640 39.763084 -1.938288 -3.405971 -11.905636 0.000000 0.000000 0.000000 0.234391 -5.480526 -1.326311 -13.770381 -8.351194 2.116647 -45.057297 -1.398059 -29.459848 23.811768 16.521791 -38.709560 13.476803 185.498047 -84.741119 -14.762825 -11.514310 -0.066856 11.696057 112.165375 30.096319 81.035393 -12.409726 -50.968460 -26.641315 0.173104 0.175712 -7.822904 5.076552 -0.644105 31.089788 -3.716658 -2.433117 -21.759132 -11.635785 -1.540436 -4.804620 -2.871589 -1.296060 28.508480 3.541643 -1.541604 -17.881058 1.470739 -3.254856 
0.729722 41.579525 -0.987810 0.867687 -1.735369 -84.165619 -5.925636 -0.321487 -13.398445 11.638638 -0.834331 20.287954 0.000000 0.000000 0.000000 -2.028752 0.191865 44.283127 -4.248321 -1.910218 -7.672586 0.000000 0.000000 0.000000 0.234399 -5.381347 -1.326301 -13.623804 -2.803877 2.044357 -52.478714 -1.111321 -30.263628 27.020247 16.025932 -38.123112 13.476801 185.498016 -84.741104 -15.010629 -11.848593 -0.066659 11.949598 111.963867 29.206312 84.797501 -9.709169 -49.898479 -24.446095 0.173100 0.175701 -3.689722 3.638452 -0.330966 24.389421 -3.532393 -1.775795 -18.887569 -3.978694 -0.632696 0.324069 -2.577049 -0.980687 16.186392 2.929351 -2.879551 -12.670206 7.816212 0.165418 
0.758751 41.838966 -0.941385 0.907037 -1.814070 -87.982597 -7.066550 -0.321324 -13.987800 11.009400 -0.833175 21.233200 0.000000 0.000000 0.000000 -1.123080 0.200000 46.286201 -5.369230 -1.107690 -5.323080 0.000000 0.000000 0.000000 0.234400 -5.140600 -1.326300 -12.577600 -1.072900 1.868900 -52.546200 -0.415200 -32.214901 26.299999 14.822200 -37.460800 13.476800 185.498001 -84.741096 -15.612300 -12.660400 -0.066300 10.168800 108.378998 27.044001 90.556702 -9.992200 -48.205399 -21.194401 0.173100 0.175700 -0.672194 2.885039 0.054863 18.902498 -3.417846 -1.225127 -16.345222 -0.640386 -0.209074 8.519429 -1.561602 -0.496201 -1.586234 2.015559 -4.638020 -4.520868 10.119947 3.191820 
